<svg version="1.0" xmlns="http://www.w3.org/2000/svg" width="1706.667" height="1706.667" viewBox="0 0 1280 1280"><path d="M420.2 105.1c-17.1 2.2-30 8.7-42.8 21.4-7.5 7.4-9.9 10.6-13.6 18.2-2.6 5-5.5 12.7-6.5 17-1.7 7.5-1.8 25.7-1.8 478.8 0 448.7.1 471.3 1.8 478 1 3.8 3.8 11.3 6.4 16.5 3.9 8 5.9 10.8 13.7 18.5 7.6 7.6 10.6 9.9 18.6 13.8 18.3 9-5.2 8.2 244 8.2s225.7.8 244-8.2c8-3.9 11-6.2 18.6-13.8 7.8-7.7 9.8-10.5 13.7-18.5 2.6-5.2 5.4-12.7 6.4-16.5 1.7-6.7 1.8-29.3 1.8-478.5s-.1-471.8-1.8-478.5c-1-3.9-3.8-11.3-6.4-16.5-3.9-8-5.9-10.8-13.7-18.5-10.3-10.3-19.9-16-33.3-19.8l-7.8-2.2-217.5-.1c-119.6-.1-220.3.2-223.8.7zm268.6 70.1c1.8 1.8 1.5 9.4-.4 11.2-1.4 1.4-7.1 1.6-48.4 1.6s-47-.2-48.4-1.6c-1.9-1.8-2.2-9.4-.4-11.2 1.7-1.7 95.9-1.7 97.6 0zM874 640v381H406V259h468v381zm-227 414.1c19.6 3.1 34.9 18.5 38.2 38.3 3.7 22.5-11.3 45.2-33.7 51.1-26 6.7-52-10.3-56.6-37.1-4.1-23.9 13.2-48.3 37.1-52.3 7.6-1.2 7.7-1.2 15 0z"/></svg>